<svg xmlns="http://www.w3.org/2000/svg" xmlns:xlink="http://www.w3.org/1999/xlink" width="336" zoomAndPan="magnify" viewBox="0 0 252 143.999998" height="192" preserveAspectRatio="xMidYMid meet" version="1.0"><defs><g/><clipPath id="3ab9311a36"><path d="M 8.503906 16.195312 L 120.253906 16.195312 L 120.253906 127.945312 L 8.503906 127.945312 Z M 8.503906 16.195312 " clip-rule="nonzero"/></clipPath><clipPath id="02bd1b2472"><path d="M 78.328125 38.308594 L 242.578125 38.308594 L 242.578125 105.808594 L 78.328125 105.808594 Z M 78.328125 38.308594 " clip-rule="nonzero"/></clipPath><clipPath id="ae322d150e"><path d="M 16.867188 24.558594 L 112 24.558594 L 112 119.808594 L 16.867188 119.808594 Z M 16.867188 24.558594 " clip-rule="nonzero"/></clipPath><clipPath id="9e5ae64364"><path d="M 57.992188 40.757812 L 101.109375 40.757812 L 101.109375 103.996094 L 57.992188 103.996094 Z M 57.992188 40.757812 " clip-rule="nonzero"/></clipPath><clipPath id="b9d8a1cbcf"><path d="M 0.992188 0.757812 L 44.109375 0.757812 L 44.109375 63.996094 L 0.992188 63.996094 Z M 0.992188 0.757812 " clip-rule="nonzero"/></clipPath><clipPath id="ba0f2efa56"><rect x="0" width="45" y="0" height="64"/></clipPath><clipPath id="b3b66fde87"><path d="M 42 42 L 97.363281 42 L 97.363281 97 L 42 97 Z M 42 42 " clip-rule="nonzero"/></clipPath><clipPath id="ff0b90ebae"><path d="M 30.613281 30.769531 L 72 30.769531 L 72 108 L 30.613281 108 Z M 30.613281 30.769531 " clip-rule="nonzero"/></clipPath><clipPath id="3c182bd377"><rect x="0" width="135" y="0" height="38"/></clipPath><clipPath id="9276df08f2"><path d="M 208.105469 84.746094 L 212.910156 84.746094 L 212.910156 89.550781 L 208.105469 89.550781 Z M 208.105469 84.746094 " clip-rule="nonzero"/></clipPath><clipPath id="2882c1eea2"><path d="M 210.507812 84.746094 C 209.183594 84.746094 208.105469 85.824219 208.105469 87.148438 C 208.105469 88.476562 209.183594 89.550781 210.507812 89.550781 C 211.835938 89.550781 212.910156 88.476562 212.910156 87.148438 C 212.910156 85.824219 211.835938 84.746094 210.507812 84.746094 Z M 210.507812 84.746094 " clip-rule="nonzero"/></clipPath><clipPath id="736aee32f1"><path d="M 0.105469 0.746094 L 4.910156 0.746094 L 4.910156 5.550781 L 0.105469 5.550781 Z M 0.105469 0.746094 " clip-rule="nonzero"/></clipPath><clipPath id="886b05e780"><path d="M 2.507812 0.746094 C 1.183594 0.746094 0.105469 1.824219 0.105469 3.148438 C 0.105469 4.476562 1.183594 5.550781 2.507812 5.550781 C 3.835938 5.550781 4.910156 4.476562 4.910156 3.148438 C 4.910156 1.824219 3.835938 0.746094 2.507812 0.746094 Z M 2.507812 0.746094 " clip-rule="nonzero"/></clipPath><clipPath id="c52e9bb52b"><rect x="0" width="5" y="0" height="6"/></clipPath><clipPath id="9b28952368"><rect x="0" width="79" y="0" height="18"/></clipPath><clipPath id="f6f1ca4496"><path d="M 118.476562 84.746094 L 123.28125 84.746094 L 123.28125 89.550781 L 118.476562 89.550781 Z M 118.476562 84.746094 " clip-rule="nonzero"/></clipPath><clipPath id="abd712397e"><path d="M 120.878906 84.746094 C 119.550781 84.746094 118.476562 85.824219 118.476562 87.148438 C 118.476562 88.476562 119.550781 89.550781 120.878906 89.550781 C 122.203125 89.550781 123.28125 88.476562 123.28125 87.148438 C 123.28125 85.824219 122.203125 84.746094 120.878906 84.746094 Z M 120.878906 84.746094 " clip-rule="nonzero"/></clipPath><clipPath id="733639d191"><path d="M 0.476562 0.746094 L 5.28125 0.746094 L 5.28125 5.550781 L 0.476562 5.550781 Z M 0.476562 0.746094 " clip-rule="nonzero"/></clipPath><clipPath id="7dfde1b118"><path d="M 2.878906 0.746094 C 1.550781 0.746094 0.476562 1.824219 0.476562 3.148438 C 0.476562 4.476562 1.550781 5.550781 2.878906 5.550781 C 4.203125 5.550781 5.28125 4.476562 5.28125 3.148438 C 5.28125 1.824219 4.203125 0.746094 2.878906 0.746094 Z M 2.878906 0.746094 " clip-rule="nonzero"/></clipPath><clipPath id="c372bc07fd"><rect x="0" width="6" y="0" height="6"/></clipPath></defs><g clip-path="url(#3ab9311a36)"><path fill="#3a7675" d="M 64.308594 127.804688 C 33.476562 127.804688 8.503906 102.65625 8.503906 72 C 8.503906 41.339844 33.476562 16.195312 64.308594 16.195312 C 95.140625 16.195312 120.113281 41.167969 120.113281 72 C 120.113281 102.828125 94.964844 127.804688 64.308594 127.804688 Z M 64.308594 19.636719 C 35.371094 19.636719 11.949219 43.0625 11.949219 72 C 11.949219 100.933594 35.371094 124.359375 64.308594 124.359375 C 93.246094 124.359375 116.667969 100.933594 116.667969 72 C 116.667969 43.0625 93.070312 19.636719 64.308594 19.636719 Z M 64.308594 19.636719 " fill-opacity="1" fill-rule="nonzero"/></g><g clip-path="url(#02bd1b2472)"><path fill="#3a7675" d="M 89.980469 38.367188 L 230.609375 38.367188 C 231.375 38.367188 232.132812 38.441406 232.882812 38.589844 C 233.632812 38.738281 234.359375 38.960938 235.066406 39.253906 C 235.773438 39.546875 236.445312 39.90625 237.082031 40.328125 C 237.71875 40.753906 238.308594 41.238281 238.847656 41.777344 C 239.390625 42.320312 239.871094 42.910156 240.296875 43.542969 C 240.722656 44.179688 241.082031 44.851562 241.375 45.558594 C 241.667969 46.265625 241.886719 46.996094 242.039062 47.746094 C 242.1875 48.496094 242.261719 49.253906 242.261719 50.019531 L 242.261719 94.265625 C 242.261719 95.03125 242.1875 95.789062 242.039062 96.539062 C 241.886719 97.289062 241.667969 98.019531 241.375 98.726562 C 241.082031 99.433594 240.722656 100.105469 240.296875 100.742188 C 239.871094 101.375 239.390625 101.964844 238.847656 102.507812 C 238.308594 103.046875 237.71875 103.53125 237.082031 103.957031 C 236.445312 104.378906 235.773438 104.738281 235.066406 105.03125 C 234.359375 105.324219 233.632812 105.546875 232.882812 105.695312 C 232.132812 105.84375 231.375 105.917969 230.609375 105.917969 L 89.980469 105.917969 C 89.214844 105.917969 88.457031 105.84375 87.707031 105.695312 C 86.957031 105.546875 86.226562 105.324219 85.519531 105.03125 C 84.816406 104.738281 84.144531 104.378906 83.507812 103.957031 C 82.871094 103.53125 82.28125 103.046875 81.742188 102.507812 C 81.199219 101.964844 80.714844 101.375 80.292969 100.742188 C 79.867188 100.105469 79.507812 99.433594 79.214844 98.726562 C 78.921875 98.019531 78.699219 97.289062 78.550781 96.539062 C 78.402344 95.789062 78.328125 95.03125 78.328125 94.265625 L 78.328125 50.019531 C 78.328125 49.253906 78.402344 48.496094 78.550781 47.746094 C 78.699219 46.996094 78.921875 46.265625 79.214844 45.558594 C 79.507812 44.851562 79.867188 44.179688 80.292969 43.542969 C 80.714844 42.910156 81.199219 42.320312 81.742188 41.777344 C 82.28125 41.238281 82.871094 40.753906 83.507812 40.328125 C 84.144531 39.90625 84.816406 39.546875 85.519531 39.253906 C 86.226562 38.960938 86.957031 38.738281 87.707031 38.589844 C 88.457031 38.441406 89.214844 38.367188 89.980469 38.367188 Z M 89.980469 38.367188 " fill-opacity="1" fill-rule="nonzero"/></g><g clip-path="url(#ae322d150e)"><path fill="#3a7675" d="M 111.742188 71.996094 C 111.742188 73.546875 111.664062 75.097656 111.511719 76.644531 C 111.359375 78.191406 111.132812 79.726562 110.828125 81.25 C 110.527344 82.773438 110.148438 84.277344 109.699219 85.765625 C 109.246094 87.25 108.726562 88.710938 108.128906 90.148438 C 107.535156 91.582031 106.871094 92.984375 106.140625 94.355469 C 105.40625 95.726562 104.609375 97.058594 103.746094 98.347656 C 102.882812 99.640625 101.960938 100.886719 100.972656 102.085938 C 99.988281 103.289062 98.945312 104.4375 97.847656 105.539062 C 96.75 106.636719 95.597656 107.679688 94.398438 108.664062 C 93.195312 109.648438 91.949219 110.574219 90.660156 111.4375 C 89.367188 112.300781 88.035156 113.097656 86.664062 113.828125 C 85.296875 114.5625 83.894531 115.226562 82.457031 115.820312 C 81.023438 116.414062 79.5625 116.9375 78.074219 117.386719 C 76.589844 117.839844 75.082031 118.214844 73.558594 118.519531 C 72.035156 118.824219 70.5 119.050781 68.953125 119.203125 C 67.40625 119.355469 65.859375 119.429688 64.304688 119.429688 C 62.75 119.429688 61.199219 119.355469 59.65625 119.203125 C 58.109375 119.050781 56.574219 118.824219 55.050781 118.519531 C 53.527344 118.214844 52.019531 117.839844 50.535156 117.386719 C 49.046875 116.9375 47.585938 116.414062 46.152344 115.820312 C 44.714844 115.226562 43.3125 114.5625 41.941406 113.828125 C 40.574219 113.097656 39.242188 112.300781 37.949219 111.4375 C 36.65625 110.574219 35.410156 109.648438 34.210938 108.664062 C 33.011719 107.679688 31.859375 106.636719 30.761719 105.539062 C 29.664062 104.4375 28.621094 103.289062 27.636719 102.085938 C 26.648438 100.886719 25.726562 99.640625 24.863281 98.347656 C 24 97.058594 23.203125 95.726562 22.46875 94.355469 C 21.738281 92.984375 21.074219 91.582031 20.480469 90.148438 C 19.882812 88.710938 19.359375 87.25 18.910156 85.765625 C 18.460938 84.277344 18.082031 82.773438 17.777344 81.25 C 17.476562 79.726562 17.25 78.191406 17.097656 76.644531 C 16.945312 75.097656 16.867188 73.546875 16.867188 71.996094 C 16.867188 70.441406 16.945312 68.890625 17.097656 67.34375 C 17.25 65.796875 17.476562 64.261719 17.777344 62.738281 C 18.082031 61.214844 18.460938 59.710938 18.910156 58.222656 C 19.359375 56.738281 19.882812 55.277344 20.480469 53.839844 C 21.074219 52.40625 21.738281 51.003906 22.46875 49.632812 C 23.203125 48.261719 24 46.929688 24.863281 45.640625 C 25.726562 44.347656 26.648438 43.101562 27.636719 41.902344 C 28.621094 40.699219 29.664062 39.550781 30.761719 38.453125 C 31.859375 37.351562 33.011719 36.3125 34.210938 35.324219 C 35.410156 34.339844 36.65625 33.414062 37.949219 32.550781 C 39.242188 31.6875 40.574219 30.890625 41.941406 30.160156 C 43.3125 29.425781 44.714844 28.761719 46.152344 28.167969 C 47.585938 27.574219 49.046875 27.050781 50.535156 26.601562 C 52.019531 26.148438 53.527344 25.773438 55.050781 25.46875 C 56.574219 25.164062 58.109375 24.9375 59.65625 24.785156 C 61.199219 24.632812 62.75 24.558594 64.304688 24.558594 C 65.859375 24.558594 67.40625 24.632812 68.953125 24.785156 C 70.5 24.9375 72.035156 25.164062 73.558594 25.46875 C 75.082031 25.773438 76.589844 26.148438 78.074219 26.601562 C 79.5625 27.050781 81.023438 27.574219 82.457031 28.167969 C 83.894531 28.761719 85.296875 29.425781 86.664062 30.160156 C 88.035156 30.890625 89.367188 31.6875 90.660156 32.550781 C 91.949219 33.414062 93.195312 34.339844 94.398438 35.324219 C 95.597656 36.3125 96.75 37.351562 97.847656 38.453125 C 98.945312 39.550781 99.988281 40.699219 100.972656 41.902344 C 101.960938 43.101562 102.882812 44.347656 103.746094 45.640625 C 104.609375 46.929688 105.40625 48.261719 106.140625 49.632812 C 106.871094 51.003906 107.535156 52.40625 108.128906 53.839844 C 108.726562 55.277344 109.246094 56.738281 109.699219 58.222656 C 110.148438 59.710938 110.527344 61.214844 110.828125 62.738281 C 111.132812 64.261719 111.359375 65.796875 111.511719 67.34375 C 111.664062 68.890625 111.742188 70.441406 111.742188 71.996094 Z M 111.742188 71.996094 " fill-opacity="1" fill-rule="nonzero"/></g><g clip-path="url(#9e5ae64364)"><g transform="matrix(1, 0, 0, 1, 57, 40)"><g clip-path="url(#ba0f2efa56)"><g clip-path="url(#b9d8a1cbcf)"><path fill="#3a7675" d="M 0.992188 0.757812 L 44.109375 0.757812 L 44.109375 63.921875 L 0.992188 63.921875 Z M 0.992188 0.757812 " fill-opacity="1" fill-rule="nonzero"/></g></g></g></g><g clip-path="url(#b3b66fde87)"><path fill="#ffffff" d="M 97.28125 96.457031 L 74.222656 42.273438 L 73.101562 42.273438 C 73.203125 47.261719 71.445312 52.203125 68.78125 56.902344 L 75.761719 73.9375 L 61.464844 73.9375 L 67.699219 58.726562 C 66.203125 61.128906 64.496094 63.464844 62.710938 65.703125 C 56.261719 73.792969 45.742188 84.996094 42.871094 96.457031 L 52.320312 96.457031 L 57.238281 84.390625 L 79.992188 84.390625 L 84.910156 96.457031 Z M 97.28125 96.457031 " fill-opacity="1" fill-rule="nonzero"/></g><g clip-path="url(#ff0b90ebae)"><path fill="#ffffff" d="M 53.347656 33.414062 C 56.820312 33.414062 59.632812 36.226562 59.632812 39.699219 C 59.632812 43.171875 56.820312 45.980469 53.347656 45.980469 C 49.875 45.980469 47.066406 43.167969 47.066406 39.699219 C 47.066406 36.226562 49.878906 33.414062 53.347656 33.414062 M 66.539062 30.769531 C 69.949219 41.875 64.785156 46.746094 54.621094 48.882812 C 42.269531 51.480469 32.746094 52.683594 30.617188 60.289062 C 44.769531 51.957031 49.386719 57.84375 42.429688 71.511719 C 35.148438 85.824219 33.785156 98.238281 40.835938 107.960938 C 36.332031 92 51.972656 75.835938 61.085938 64.40625 C 70.324219 52.824219 75.148438 41.460938 66.539062 30.769531 Z M 66.539062 30.769531 " fill-opacity="1" fill-rule="evenodd"/></g><g transform="matrix(1, 0, 0, 1, 99, 47)"><g clip-path="url(#3c182bd377)"><g fill="#ffffff" fill-opacity="1"><g transform="translate(1.019873, 27.826683)"><g><path d="M 6.265625 -3.546875 L 12.28125 -3.546875 L 12.28125 0 L 1.671875 0 L 1.671875 -18.875 L 6.265625 -18.875 Z M 6.265625 -3.546875 "/></g></g></g><g fill="#ffffff" fill-opacity="1"><g transform="translate(16.075825, 27.826683)"><g><path d="M 6.265625 -15.1875 L 6.265625 -11.375 L 12.421875 -11.375 L 12.421875 -7.828125 L 6.265625 -7.828125 L 6.265625 -3.6875 L 13.234375 -3.6875 L 13.234375 0 L 1.671875 0 L 1.671875 -18.875 L 13.234375 -18.875 L 13.234375 -15.1875 Z M 6.265625 -15.1875 "/></g></g></g><g fill="#ffffff" fill-opacity="1"><g transform="translate(32.852426, 27.826683)"><g><path d="M 11.296875 0 L 7.375 -7.125 L 6.265625 -7.125 L 6.265625 0 L 1.671875 0 L 1.671875 -18.875 L 9.390625 -18.875 C 10.867188 -18.875 12.132812 -18.613281 13.1875 -18.09375 C 14.238281 -17.570312 15.023438 -16.859375 15.546875 -15.953125 C 16.066406 -15.046875 16.328125 -14.039062 16.328125 -12.9375 C 16.328125 -11.675781 15.972656 -10.550781 15.265625 -9.5625 C 14.554688 -8.582031 13.507812 -7.882812 12.125 -7.46875 L 16.484375 0 Z M 6.265625 -10.375 L 9.109375 -10.375 C 9.953125 -10.375 10.582031 -10.578125 11 -10.984375 C 11.425781 -11.398438 11.640625 -11.988281 11.640625 -12.75 C 11.640625 -13.46875 11.425781 -14.03125 11 -14.4375 C 10.582031 -14.851562 9.953125 -15.0625 9.109375 -15.0625 L 6.265625 -15.0625 Z M 6.265625 -10.375 "/></g></g></g><g fill="#ffffff" fill-opacity="1"><g transform="translate(52.613281, 27.826683)"><g><path d="M 15.25 -18.875 L 15.25 -15.1875 L 10.25 -15.1875 L 10.25 0 L 5.640625 0 L 5.640625 -15.1875 L 0.640625 -15.1875 L 0.640625 -18.875 Z M 15.25 -18.875 "/></g></g></g><g fill="#ffffff" fill-opacity="1"><g transform="translate(70.734137, 27.826683)"><g><path d="M 13.421875 -3.328125 L 6.375 -3.328125 L 5.25 0 L 0.4375 0 L 7.265625 -18.875 L 12.578125 -18.875 L 19.421875 0 L 14.546875 0 Z M 12.234375 -6.890625 L 9.890625 -13.796875 L 7.578125 -6.890625 Z M 12.234375 -6.890625 "/></g></g></g><g fill="#ffffff" fill-opacity="1"><g transform="translate(92.780228, 27.826683)"><g><path d="M 11.296875 0 L 7.375 -7.125 L 6.265625 -7.125 L 6.265625 0 L 1.671875 0 L 1.671875 -18.875 L 9.390625 -18.875 C 10.867188 -18.875 12.132812 -18.613281 13.1875 -18.09375 C 14.238281 -17.570312 15.023438 -16.859375 15.546875 -15.953125 C 16.066406 -15.046875 16.328125 -14.039062 16.328125 -12.9375 C 16.328125 -11.675781 15.972656 -10.550781 15.265625 -9.5625 C 14.554688 -8.582031 13.507812 -7.882812 12.125 -7.46875 L 16.484375 0 Z M 6.265625 -10.375 L 9.109375 -10.375 C 9.953125 -10.375 10.582031 -10.578125 11 -10.984375 C 11.425781 -11.398438 11.640625 -11.988281 11.640625 -12.75 C 11.640625 -13.46875 11.425781 -14.03125 11 -14.4375 C 10.582031 -14.851562 9.953125 -15.0625 9.109375 -15.0625 L 6.265625 -15.0625 Z M 6.265625 -10.375 "/></g></g></g><g fill="#ffffff" fill-opacity="1"><g transform="translate(112.541083, 27.826683)"><g><path d="M 13.421875 -3.328125 L 6.375 -3.328125 L 5.25 0 L 0.4375 0 L 7.265625 -18.875 L 12.578125 -18.875 L 19.421875 0 L 14.546875 0 Z M 12.234375 -6.890625 L 9.890625 -13.796875 L 7.578125 -6.890625 Z M 12.234375 -6.890625 "/></g></g></g></g></g><g clip-path="url(#9276df08f2)"><g clip-path="url(#2882c1eea2)"><g transform="matrix(1, 0, 0, 1, 208, 84)"><g clip-path="url(#c52e9bb52b)"><g clip-path="url(#736aee32f1)"><g clip-path="url(#886b05e780)"><path fill="#ffffff" d="M 0.105469 0.746094 L 4.910156 0.746094 L 4.910156 5.550781 L 0.105469 5.550781 Z M 0.105469 0.746094 " fill-opacity="1" fill-rule="nonzero"/></g></g></g></g></g></g><g transform="matrix(1, 0, 0, 1, 126, 78)"><g clip-path="url(#9b28952368)"><g fill="#ffffff" fill-opacity="1"><g transform="translate(1.683546, 13.266211)"><g><path d="M 7.359375 1.53125 L 5.75 -0.078125 C 5.351562 0.0234375 4.953125 0.078125 4.546875 0.078125 C 3.796875 0.078125 3.113281 -0.09375 2.5 -0.4375 C 1.882812 -0.789062 1.394531 -1.28125 1.03125 -1.90625 C 0.675781 -2.539062 0.5 -3.25 0.5 -4.03125 C 0.5 -4.820312 0.675781 -5.53125 1.03125 -6.15625 C 1.394531 -6.78125 1.882812 -7.269531 2.5 -7.625 C 3.113281 -7.976562 3.796875 -8.15625 4.546875 -8.15625 C 5.296875 -8.15625 5.976562 -7.976562 6.59375 -7.625 C 7.21875 -7.269531 7.707031 -6.78125 8.0625 -6.15625 C 8.414062 -5.53125 8.59375 -4.820312 8.59375 -4.03125 C 8.59375 -3.257812 8.421875 -2.566406 8.078125 -1.953125 C 7.742188 -1.335938 7.28125 -0.851562 6.6875 -0.5 L 8.71875 1.53125 Z M 1.578125 -4.03125 C 1.578125 -3.394531 1.703125 -2.832031 1.953125 -2.34375 C 2.210938 -1.863281 2.566406 -1.488281 3.015625 -1.21875 C 3.472656 -0.957031 3.984375 -0.828125 4.546875 -0.828125 C 5.109375 -0.828125 5.613281 -0.957031 6.0625 -1.21875 C 6.507812 -1.488281 6.863281 -1.863281 7.125 -2.34375 C 7.382812 -2.832031 7.515625 -3.394531 7.515625 -4.03125 C 7.515625 -4.675781 7.382812 -5.238281 7.125 -5.71875 C 6.863281 -6.207031 6.507812 -6.582031 6.0625 -6.84375 C 5.625 -7.101562 5.117188 -7.234375 4.546875 -7.234375 C 3.972656 -7.234375 3.460938 -7.101562 3.015625 -6.84375 C 2.566406 -6.582031 2.210938 -6.207031 1.953125 -5.71875 C 1.703125 -5.238281 1.578125 -4.675781 1.578125 -4.03125 Z M 1.578125 -4.03125 "/></g></g></g><g fill="#ffffff" fill-opacity="1"><g transform="translate(10.977733, 13.266211)"><g><path d="M 1.921875 -8.0625 L 1.921875 -2.953125 C 1.921875 -2.242188 2.09375 -1.710938 2.4375 -1.359375 C 2.789062 -1.015625 3.28125 -0.84375 3.90625 -0.84375 C 4.519531 -0.84375 5.003906 -1.015625 5.359375 -1.359375 C 5.710938 -1.710938 5.890625 -2.242188 5.890625 -2.953125 L 5.890625 -8.0625 L 6.9375 -8.0625 L 6.9375 -2.96875 C 6.9375 -2.300781 6.800781 -1.738281 6.53125 -1.28125 C 6.257812 -0.820312 5.894531 -0.476562 5.4375 -0.25 C 4.976562 -0.03125 4.460938 0.078125 3.890625 0.078125 C 3.328125 0.078125 2.816406 -0.03125 2.359375 -0.25 C 1.898438 -0.476562 1.535156 -0.820312 1.265625 -1.28125 C 1.003906 -1.738281 0.875 -2.300781 0.875 -2.96875 L 0.875 -8.0625 Z M 1.921875 -8.0625 "/></g></g></g><g fill="#ffffff" fill-opacity="1"><g transform="translate(18.965676, 13.266211)"><g><path d="M 1.9375 -7.203125 L 1.9375 -4.515625 L 4.875 -4.515625 L 4.875 -3.640625 L 1.9375 -3.640625 L 1.9375 -0.875 L 5.21875 -0.875 L 5.21875 0 L 0.890625 0 L 0.890625 -8.078125 L 5.21875 -8.078125 L 5.21875 -7.203125 Z M 1.9375 -7.203125 "/></g></g></g><g fill="#ffffff" fill-opacity="1"><g transform="translate(25.08094, 13.266211)"><g><path d="M 1.78125 -0.90625 L 5.71875 -0.90625 L 5.71875 0 L 0.53125 0 L 0.53125 -0.828125 L 4.4375 -7.140625 L 0.578125 -7.140625 L 0.578125 -8.0625 L 5.6875 -8.0625 L 5.6875 -7.234375 Z M 1.78125 -0.90625 "/></g></g></g><g fill="#ffffff" fill-opacity="1"><g transform="translate(31.519873, 13.266211)"><g><path d="M 4.546875 0.078125 C 3.796875 0.078125 3.113281 -0.09375 2.5 -0.4375 C 1.882812 -0.789062 1.394531 -1.28125 1.03125 -1.90625 C 0.675781 -2.539062 0.5 -3.25 0.5 -4.03125 C 0.5 -4.820312 0.675781 -5.53125 1.03125 -6.15625 C 1.394531 -6.78125 1.882812 -7.269531 2.5 -7.625 C 3.113281 -7.976562 3.796875 -8.15625 4.546875 -8.15625 C 5.296875 -8.15625 5.976562 -7.976562 6.59375 -7.625 C 7.21875 -7.269531 7.707031 -6.78125 8.0625 -6.15625 C 8.414062 -5.53125 8.59375 -4.820312 8.59375 -4.03125 C 8.59375 -3.238281 8.414062 -2.53125 8.0625 -1.90625 C 7.707031 -1.28125 7.21875 -0.789062 6.59375 -0.4375 C 5.976562 -0.09375 5.296875 0.078125 4.546875 0.078125 Z M 4.546875 -0.828125 C 5.109375 -0.828125 5.613281 -0.957031 6.0625 -1.21875 C 6.507812 -1.488281 6.863281 -1.863281 7.125 -2.34375 C 7.382812 -2.832031 7.515625 -3.394531 7.515625 -4.03125 C 7.515625 -4.675781 7.382812 -5.238281 7.125 -5.71875 C 6.863281 -6.207031 6.507812 -6.582031 6.0625 -6.84375 C 5.625 -7.101562 5.117188 -7.234375 4.546875 -7.234375 C 3.972656 -7.234375 3.460938 -7.101562 3.015625 -6.84375 C 2.566406 -6.582031 2.210938 -6.207031 1.953125 -5.71875 C 1.703125 -5.238281 1.578125 -4.675781 1.578125 -4.03125 C 1.578125 -3.394531 1.703125 -2.832031 1.953125 -2.34375 C 2.210938 -1.863281 2.566406 -1.488281 3.015625 -1.21875 C 3.472656 -0.957031 3.984375 -0.828125 4.546875 -0.828125 Z M 4.546875 -0.828125 "/></g></g></g><g fill="#ffffff" fill-opacity="1"><g transform="translate(40.790936, 13.266211)"><g><path d="M 7.234375 0 L 6.171875 0 L 1.9375 -6.421875 L 1.9375 0 L 0.890625 0 L 0.890625 -8.078125 L 1.9375 -8.078125 L 6.171875 -1.671875 L 6.171875 -8.078125 L 7.234375 -8.078125 Z M 7.234375 0 "/></g></g></g><g fill="#ffffff" fill-opacity="1"><g transform="translate(49.102548, 13.266211)"><g/></g></g><g fill="#ffffff" fill-opacity="1"><g transform="translate(52.374125, 13.266211)"><g><path d="M 0.5 -4.03125 C 0.5 -4.820312 0.675781 -5.53125 1.03125 -6.15625 C 1.382812 -6.78125 1.867188 -7.269531 2.484375 -7.625 C 3.097656 -7.976562 3.773438 -8.15625 4.515625 -8.15625 C 5.398438 -8.15625 6.171875 -7.941406 6.828125 -7.515625 C 7.484375 -7.097656 7.957031 -6.5 8.25 -5.71875 L 7 -5.71875 C 6.769531 -6.207031 6.445312 -6.582031 6.03125 -6.84375 C 5.613281 -7.101562 5.109375 -7.234375 4.515625 -7.234375 C 3.953125 -7.234375 3.445312 -7.101562 3 -6.84375 C 2.550781 -6.582031 2.203125 -6.207031 1.953125 -5.71875 C 1.703125 -5.238281 1.578125 -4.675781 1.578125 -4.03125 C 1.578125 -3.394531 1.703125 -2.832031 1.953125 -2.34375 C 2.203125 -1.863281 2.550781 -1.492188 3 -1.234375 C 3.445312 -0.972656 3.953125 -0.84375 4.515625 -0.84375 C 5.109375 -0.84375 5.613281 -0.972656 6.03125 -1.234375 C 6.445312 -1.492188 6.769531 -1.863281 7 -2.34375 L 8.25 -2.34375 C 7.957031 -1.570312 7.484375 -0.976562 6.828125 -0.5625 C 6.171875 -0.144531 5.398438 0.0625 4.515625 0.0625 C 3.773438 0.0625 3.097656 -0.109375 2.484375 -0.453125 C 1.867188 -0.804688 1.382812 -1.296875 1.03125 -1.921875 C 0.675781 -2.546875 0.5 -3.25 0.5 -4.03125 Z M 0.5 -4.03125 "/></g></g></g><g fill="#ffffff" fill-opacity="1"><g transform="translate(61.483357, 13.266211)"><g><path d="M 1.9375 -8.0625 L 1.9375 0 L 0.890625 0 L 0.890625 -8.0625 Z M 1.9375 -8.0625 "/></g></g></g><g fill="#ffffff" fill-opacity="1"><g transform="translate(64.512179, 13.266211)"><g><path d="M 5.84375 -8.0625 L 5.84375 -7.203125 L 3.65625 -7.203125 L 3.65625 0 L 2.609375 0 L 2.609375 -7.203125 L 0.390625 -7.203125 L 0.390625 -8.0625 Z M 5.84375 -8.0625 "/></g></g></g><g fill="#ffffff" fill-opacity="1"><g transform="translate(70.951113, 13.266211)"><g><path d="M 6.53125 -8.0625 L 3.90625 -3.046875 L 3.90625 0 L 2.859375 0 L 2.859375 -3.046875 L 0.21875 -8.0625 L 1.390625 -8.0625 L 3.375 -3.984375 L 5.359375 -8.0625 Z M 6.53125 -8.0625 "/></g></g></g></g></g><g clip-path="url(#f6f1ca4496)"><g clip-path="url(#abd712397e)"><g transform="matrix(1, 0, 0, 1, 118, 84)"><g clip-path="url(#c372bc07fd)"><g clip-path="url(#733639d191)"><g clip-path="url(#7dfde1b118)"><path fill="#ffffff" d="M 0.476562 0.746094 L 5.28125 0.746094 L 5.28125 5.550781 L 0.476562 5.550781 Z M 0.476562 0.746094 " fill-opacity="1" fill-rule="nonzero"/></g></g></g></g></g></g></svg>